<svg width="1334" height="604" viewBox="0 0 1334 604" fill="none" xmlns="http://www.w3.org/2000/svg">
<g clip-path="url(#clip0_134_11279)">
<rect width="1334" height="604" rx="20" fill="#007AFF"/>
<path d="M190.359 604.276C205.402 571.6 212.963 554.219 185.557 541.044C171.827 534.444 162.017 537.265 151.459 550.261C144.44 558.899 156.426 565.98 163.629 557.115C173.029 545.547 178.496 531.063 176.897 517.132C173.163 484.598 127.914 478.672 102.173 483.554C91.946 485.494 76.0949 502.1 91.9526 503.411C103.152 504.338 111.138 485.595 110.949 476.392C110.097 434.698 64.4332 439.398 34.756 445.027C24.7842 446.918 3.49021 452.648 -5.00011 459.185" stroke="white" stroke-width="3" stroke-linecap="round"/>
<path d="M1216.94 -7.50141C1217.69 14.0734 1222.82 34.0736 1229.82 52.9967C1234.34 65.228 1244.98 76.9623 1261.61 69.7996C1272.69 65.0266 1283.29 49.3293 1280.52 39.4499C1277.53 28.8146 1269.37 37.7401 1266.19 45.1843C1256.73 67.2982 1262.08 84.0083 1275.75 96.386C1284.39 104.212 1294.65 108.018 1301.02 109.76C1305.04 110.858 1309.22 111.087 1313.38 111.087L1333.74 111.087" stroke="white" stroke-width="2" stroke-linecap="round"/>
<path d="M374 0.211487C374 5.15789 371.722 9.9481 367.443 14.3915C363.159 18.8397 356.912 22.8913 349.116 26.3155C333.526 33.1627 311.919 37.423 288 37.423C264.081 37.423 242.474 33.1627 226.884 26.3155C219.088 22.8913 212.841 18.8397 208.557 14.3915C204.278 9.9481 202 5.15789 202 0.211487C202 -4.73492 204.278 -9.52513 208.557 -13.9685C212.841 -18.4167 219.088 -22.4683 226.884 -25.8925C242.474 -32.7398 264.081 -37 288 -37C311.919 -37 333.526 -32.7398 349.116 -25.8925C356.912 -22.4683 363.159 -18.4167 367.443 -13.9685C371.722 -9.52513 374 -4.73492 374 0.211487Z" stroke="white" stroke-width="2"/>
</g>
<defs>
<clipPath id="clip0_134_11279">
<rect width="1334" height="604" rx="20" fill="white"/>
</clipPath>
</defs>
</svg>
